<?xml version="1.0" encoding="UTF-8"?>
<!DOCTYPE svg PUBLIC "-//W3C//DTD SVG 1.1//EN" "http://www.w3.org/Graphics/SVG/1.1/DTD/svg11.dtd">
<!-- Creator: CorelDRAW -->
<svg xmlns="http://www.w3.org/2000/svg" xml:space="preserve" width="4.0219mm" height="5.3522mm" version="1.1" style="shape-rendering:geometricPrecision; text-rendering:geometricPrecision; image-rendering:optimizeQuality; fill-rule:evenodd; clip-rule:evenodd"
viewBox="0 0 7.77 10.34"
 xmlns:xlink="http://www.w3.org/1999/xlink"
 xmlns:xodm="http://www.corel.com/coreldraw/odm/2003">
 <defs>
  <style type="text/css">
   <![CDATA[
    .fil0 {fill:#0098DA}
   ]]>
  </style>
 </defs>
 <g id="Layer_x0020_1">
  <metadata id="CorelCorpID_0Corel-Layer"/>
  <path class="fil0" d="M7.77 8.68l0 -4.93c0,-0.38 -0.21,-0.73 -0.56,-0.9 -0.34,-0.17 -0.56,-0.52 -0.56,-0.9l0 -0.94 0.3 0c0.28,0 0.51,-0.23 0.51,-0.51 0,-0.28 -0.23,-0.51 -0.51,-0.51l-6.15 0c-0.28,0 -0.51,0.23 -0.51,0.51 0,0.28 0.23,0.51 0.51,0.51l0.3 0 0 0.94c0,0.38 -0.21,0.73 -0.56,0.9 -0.34,0.17 -0.56,0.52 -0.56,0.9l0 4.93c0,0.92 0.75,1.67 1.67,1.67l4.44 -0c0.92,0 1.67,-0.75 1.67,-1.67zm-4.45 -5.24c-0.08,0.02 -0.16,0.04 -0.23,0.07 -0.2,0.07 -0.39,0.23 -0.53,0.39 -0.13,0.15 -0.2,0.29 -0.26,0.48 -0.04,0.13 -0.06,0.25 -0.07,0.38l0 0.12c0.01,0.23 0.09,0.45 0.21,0.66 0.27,0.46 0.75,0.66 1.3,0.65 0.22,-0 0.71,-0.08 0.71,0.27 0,0.3 -0.29,0.28 -0.46,0.28l-1.13 -0c-0.16,-0 -0.21,0.01 -0.33,0.06 -0.18,0.09 -0.28,0.27 -0.29,0.46l0 0.07c0.01,0.16 0.09,0.32 0.24,0.43 0.17,0.12 0.31,0.1 0.57,0.1 0.49,0 0.18,-0 0.38,0.29 0.1,0.15 0.26,0.24 0.42,0.26l0.12 0c0.24,-0.03 0.47,-0.22 0.5,-0.59 0.32,-0.07 0.55,-0.21 0.77,-0.46 0.13,-0.15 0.2,-0.29 0.26,-0.48 0.04,-0.13 0.06,-0.25 0.07,-0.38l0 -0.12c-0.01,-0.23 -0.09,-0.45 -0.21,-0.66 -0.13,-0.21 -0.3,-0.35 -0.5,-0.47 -0.46,-0.28 -0.96,-0.14 -1.27,-0.18 -0.25,-0.04 -0.32,-0.37 -0.1,-0.5 0.12,-0.07 0.92,-0.04 1.09,-0.04 0.12,0 0.25,-0 0.37,0 0.4,0 0.6,-0.25 0.62,-0.51l0 -0.07c-0.01,-0.17 -0.09,-0.33 -0.24,-0.43 -0.17,-0.12 -0.31,-0.1 -0.57,-0.1 -0.49,0 -0.18,0 -0.38,-0.29 -0.1,-0.15 -0.25,-0.24 -0.41,-0.26l-0.13 0c-0.24,0.03 -0.47,0.22 -0.5,0.59z"/>
 </g>
</svg>
