<?xml version="1.0" encoding="UTF-8"?>
<!DOCTYPE svg PUBLIC "-//W3C//DTD SVG 1.1//EN" "http://www.w3.org/Graphics/SVG/1.1/DTD/svg11.dtd">
<!-- Creator: CorelDRAW -->
<svg xmlns="http://www.w3.org/2000/svg" xml:space="preserve" width="55.2792mm" height="68.0826mm" version="1.1" style="shape-rendering:geometricPrecision; text-rendering:geometricPrecision; image-rendering:optimizeQuality; fill-rule:evenodd; clip-rule:evenodd"
viewBox="0 0 639.59 787.73"
 xmlns:xlink="http://www.w3.org/1999/xlink"
 xmlns:xodm="http://www.corel.com/coreldraw/odm/2003">
 <defs>
  <style type="text/css">
   <![CDATA[
    .fil0 {fill:#FF3131}
   ]]>
  </style>
 </defs>
 <g id="Layer_x0020_1">
  <metadata id="CorelCorpID_0Corel-Layer"/>
  <g id="_2044774827792">
   <path class="fil0" d="M319.79 0c176.62,0 319.79,143.17 319.79,319.79 0,176.62 -143.17,319.79 -319.79,319.79 -176.62,0 -319.79,-143.17 -319.79,-319.79 0,-176.62 143.17,-319.79 319.79,-319.79zm0 569.58c137.96,0 249.79,-111.83 249.79,-249.79 0,-137.96 -111.83,-249.79 -249.79,-249.79 -137.96,0 -249.79,111.83 -249.79,249.79 0,137.96 111.83,249.79 249.79,249.79z"/>
   <circle class="fil0" cx="319.79" cy="319.79" r="162.25"/>
   <path class="fil0" d="M319.79 709.74c-35.71,0 -69.58,-7.87 -99.97,-21.98l99.97 99.97 99.97 -99.97c-30.39,14.11 -64.26,21.98 -99.97,21.98z"/>
  </g>
 </g>
</svg>
