<?xml version="1.0" encoding="UTF-8"?>
<!DOCTYPE svg PUBLIC "-//W3C//DTD SVG 1.1//EN" "http://www.w3.org/Graphics/SVG/1.1/DTD/svg11.dtd">
<!-- Creator: CorelDRAW -->
<svg xmlns="http://www.w3.org/2000/svg" xml:space="preserve" width="5.148mm" height="5.5561mm" version="1.1" style="shape-rendering:geometricPrecision; text-rendering:geometricPrecision; image-rendering:optimizeQuality; fill-rule:evenodd; clip-rule:evenodd"
viewBox="0 0 13.68 14.77"
 xmlns:xlink="http://www.w3.org/1999/xlink"
 xmlns:xodm="http://www.corel.com/coreldraw/odm/2003">
 <defs>
  <style type="text/css">
   <![CDATA[
    .fil0 {fill:#22C55E}
   ]]>
  </style>
 </defs>
 <g id="Layer_x0020_1">
  <metadata id="CorelCorpID_0Corel-Layer"/>
  <g id="_2648676206032">
   <path class="fil0" d="M2.81 4.22c-1.16,0 -2.11,-0.95 -2.11,-2.11 0,-1.16 0.95,-2.11 2.11,-2.11 1.16,0 2.11,0.95 2.11,2.11 0,1.16 -0.95,2.11 -2.11,2.11zm2.11 6.62l0 3.93 -4.22 0 0 -3.93 -0.7 -0.7 0 -3.1c0,-0.78 0.63,-1.41 1.41,-1.41l2.81 0c0.78,0 1.41,0.63 1.41,1.41l0 3.1 -0.7 0.7z"/>
   <path class="fil0" d="M7.74 2.11c0,-1.16 0.94,-2.11 2.11,-2.11 1.16,0 2.11,0.95 2.11,2.11 0,1.16 -0.95,2.11 -2.11,2.11 -1.16,0 -2.11,-0.95 -2.11,-2.11zm0 9.85l-1.68 0 0.31 -0.93c0.31,-0.94 0.7,-1.91 1.08,-2.82 0.21,-0.51 0.42,-1.03 0.66,-1.53 0.2,-0.43 0.47,-1.05 1.03,-1.05l1.56 0 0.14 0.07c0.44,0.21 1.11,2.06 1.31,2.51 0.39,0.92 0.8,1.86 1.16,2.79l0.37 0.96 -1.73 0 0 2.81 -4.22 0 0 -2.81z"/>
  </g>
 </g>
</svg>
